{"title":"Atlantis S01E04 Twist of Fate HDTV 480p x264 AAC E-Subs [GWC].mp","uid":9074151,"size":138423393,"categoryP":"video","categoryS":"tv_shows","magnet":"?xt=urn:btih:a6f34c08c50c02726e78a82371decbe4fb415209&amp;dn=Atlantis+S01E04+Twist+of+Fate+HDTV+480p+x264+AAC+E-Subs+%5BGWC%5D.mp&amp;tr=udp%3A%2F%2Ftracker.openbittorrent.com%3A80&amp;tr=udp%3A%2F%2Fopen.demonii.com%3A1337&amp;tr=udp%3A%2F%2Ftracker.coppersurfer.tk%3A6969&amp;tr=udp%3A%2F%2Fexodus.desync.com%3A6969","seeders":1,"leechers":1,"uploader":"canc232","files":1,"time":1382257618,"description":"Atlantis S01E04 Twist of Fate HDTV 480p x264 AAC E-Subs [GWC]\n\n\n\nSCREENS:\n &lt;a href=&quot;\nhttp://s20.postimg.org/50gzlnqil/Atlantis_01x04_Twist_of_Fate_muxed_11_42_43.jpg&quot; rel=&quot;nofollow&quot; target=&quot;_NEW&quot;&gt;\nhttp://s20.postimg.org/50gzlnqil/Atlantis_01x04_Twist_of_Fate_muxed_11_42_43.jpg&lt;/a&gt;\n &lt;a href=&quot;\nhttp://s20.postimg.org/ewi2lawal/Atlantis_01x04_Twist_of_Fate_muxed_11_43_02.jpg&quot; rel=&quot;nofollow&quot; target=&quot;_NEW&quot;&gt;\nhttp://s20.postimg.org/ewi2lawal/Atlantis_01x04_Twist_of_Fate_muxed_11_43_02.jpg&lt;/a&gt;\n &lt;a href=&quot;\nhttp://s20.postimg.org/j86oab37h/Atlantis_01x04_Twist_of_Fate_muxed_11_43_12.jpg&quot; rel=&quot;nofollow&quot; target=&quot;_NEW&quot;&gt;\nhttp://s20.postimg.org/j86oab37h/Atlantis_01x04_Twist_of_Fate_muxed_11_43_12.jpg&lt;/a&gt;\n\n\n\n\n\nMEDIA INFO:\n\nGeneral \nFormat : MPEG-4 \nCodec ID : isom \nFile size : 132 MiB \nDuration : 42mn 53s \nOverall bit rate mode : Variable \nOverall bit rate : 430 Kbps \n\nVideo \nID : 201 \nFormat : AVC \nFormat profile : &lt;a class=&quot;__cf_email__&quot; href=&quot;/cdn-cgi/l/email-protection&quot; data-cfemail=&quot;7f371618173f334c514f&quot;&gt;[email&amp;#160;protected]&lt;/a&gt;&lt;script cf-hash='f9e31' type=&quot;text/javascript&quot;&gt;\n/* &lt;![CDATA[ */!function(){try{var t=&quot;currentScript&quot;in document?document.currentScript:function(){for(var t=document.getElementsByTagName(&quot;script&quot;),e=t.length;e--;)if(t[e].getAttribute(&quot;cf-hash&quot;))return t[e]}();if(t&amp;&amp;t.previousSibling){var e,r,n,i,c=t.previousSibling,a=c.getAttribute(&quot;data-cfemail&quot;);if(a){for(e=&quot;&quot;,r=parseInt(a.substr(0,2),16),n=2;a.length-n;n+=2)i=parseInt(a.substr(n,2),16)^r,e+=String.fromCharCode(i);e=document.createTextNode(e),c.parentNode.replaceChild(e,c)}}}catch(u){}}();/* ]]&gt; */&lt;/script&gt; \nFormat settings, CABAC : Yes \nFormat settings, ReFrames : 4 frames \nDuration : 42mn 53s \nBit rate : 365 Kbps \nWidth : 720 pixels \nHeight : 404 pixels \nDisplay aspect ratio : 16:9 \nFrame rate : 25.000 fps \nStream size : 112 MiB (85%) \nTitle : Atlantis S01E04 Twist of Fate HDTV 480p x264 AAC E-Subs [GWC] \nWriting library : x264 core\nLanguage : English \n\nAudio \nFormat : AAC \nFormat profile : HE-AAC / LC \nDuration : 42mn 53s \nBit rate mode : Variable \nChannel(s) : 2 channels \nSampling rate : 48.0 KHz / 24.0 KHz \nCompression mode : Lossy \nStream size : 19.0 MiB (14%) \nTitle : Atlantis S01E04 Twist of Fate HDTV 480p x264 AAC E-Subs [GWC] \nLanguage : English \n\nText \nFormat : Timed Text \nCodec ID : tx3g \nDuration : 42mn 51s \nStream size : 21.4 KiB (0%) \nTitle : English Subtitle by Stubbie \nLanguage : English","torrent":{"xt":"urn:btih:a6f34c08c50c02726e78a82371decbe4fb415209","amp;dn":"Atlantis+S01E04+Twist+of+Fate+HDTV+480p+x264+AAC+E-Subs+%5BGWC%5D.mp","amp;tr":["udp%3A%2F%2Ftracker.openbittorrent.com%3A80","udp%3A%2F%2Fopen.demonii.com%3A1337","udp%3A%2F%2Ftracker.coppersurfer.tk%3A6969","udp%3A%2F%2Fexodus.desync.com%3A6969"],"infoHash":"a6f34c08c50c02726e78a82371decbe4fb415209","infoHashBuffer":{"type":"Buffer","data":[166,243,76,8,197,12,2,114,110,120,168,35,113,222,203,228,251,65,82,9]},"announce":[],"urlList":[]}}